<?xml version="1.0" standalone="no"?>
<!DOCTYPE svg PUBLIC "-//W3C//DTD SVG 20010904//EN"
 "http://www.w3.org/TR/2001/REC-SVG-20010904/DTD/svg10.dtd">
<svg version="1.0" xmlns="http://www.w3.org/2000/svg"
 width="688.000000pt" height="688.000000pt" viewBox="0 0 688.000000 688.000000"
 preserveAspectRatio="xMidYMid meet">
<metadata>
Created by potrace 1.11, written by Peter Selinger 2001-2013
</metadata>
<g transform="translate(0.000000,688.000000) scale(0.100000,-0.100000)"
fill="#000000" stroke="none">
<path d="M2950 5541 l0 -1338 123 -2 c67 -1 131 -1 142 -1 11 0 119 0 240 0
121 0 234 0 250 1 17 0 74 1 128 1 l97 0 0 101 c1 145 1 2329 0 2465 l0 112
-490 0 -490 0 0 -1339z"/>
<path d="M4905 6069 c-15 -35 -50 -111 -78 -169 -27 -58 -64 -139 -83 -180
-19 -41 -42 -87 -50 -102 -7 -14 -14 -33 -14 -41 0 -9 -4 -17 -8 -19 -4 -1
-21 -32 -36 -68 -16 -36 -51 -112 -78 -169 -45 -96 -48 -106 -31 -115 9 -6 46
-27 80 -46 35 -20 72 -44 83 -53 11 -9 23 -17 26 -17 6 0 84 -54 118 -81 173
-137 312 -275 416 -414 25 -33 47 -62 50 -65 3 -3 21 -30 40 -60 19 -30 38
-56 42 -58 5 -2 8 -8 8 -13 0 -5 19 -39 41 -76 23 -38 42 -70 42 -73 0 -3 17
-41 38 -85 21 -44 45 -100 54 -125 41 -118 67 -196 70 -210 2 -8 8 -34 14 -57
26 -97 48 -222 58 -338 13 -150 6 -444 -12 -536 -3 -13 -7 -37 -9 -54 -23
-159 -99 -405 -177 -571 -22 -45 -39 -87 -39 -93 0 -6 -4 -11 -9 -11 -5 0 -11
-8 -14 -17 -16 -50 -114 -201 -215 -333 -60 -78 -240 -264 -323 -334 -82 -70
-325 -236 -345 -236 -3 0 -18 -8 -32 -18 -91 -62 -422 -186 -577 -217 -170
-34 -361 -58 -452 -56 -17 1 -60 1 -75 0 -64 -1 -279 16 -331 27 -12 2 -36 6
-52 8 -24 4 -98 20 -180 40 -118 29 -284 91 -410 152 -121 59 -218 113 -237
132 -7 7 -16 12 -21 12 -5 0 -52 33 -105 72 -294 220 -520 486 -681 801 -57
112 -124 269 -124 295 0 6 -3 12 -7 12 -4 0 -7 6 -7 13 0 6 -10 44 -21 82 -20
66 -49 189 -58 245 -4 25 -7 48 -21 150 -15 110 -7 466 12 560 5 25 11 58 20
108 11 64 56 224 90 317 71 201 233 489 355 634 130 155 197 222 335 336 33
28 61 53 63 58 2 4 9 7 16 7 7 0 21 9 31 20 10 11 24 20 31 20 7 0 14 4 16 9
4 11 135 91 148 91 6 0 10 3 10 8 0 4 18 15 40 24 45 20 45 14 -8 128 -19 41
-49 107 -67 145 -18 39 -58 123 -89 188 -31 65 -56 121 -56 123 0 3 -16 37
-35 75 -19 39 -35 77 -35 85 0 7 -4 14 -9 14 -5 0 -13 10 -17 23 -3 12 -19 50
-35 84 -34 74 -26 75 -199 -14 -138 -71 -154 -80 -290 -167 -111 -71 -89 -55
-219 -157 -145 -113 -150 -118 -296 -264 -122 -122 -170 -176 -237 -264 -15
-20 -34 -43 -41 -51 -21 -23 -167 -238 -167 -246 0 -4 -6 -15 -14 -23 -18 -20
-71 -114 -92 -163 -9 -21 -20 -38 -25 -38 -5 0 -9 -5 -9 -11 0 -6 -14 -41 -31
-77 -151 -324 -248 -675 -286 -1037 -14 -131 -6 -628 11 -720 2 -11 7 -45 11
-75 17 -125 84 -424 101 -452 3 -5 7 -16 9 -25 5 -26 58 -176 95 -268 46 -117
150 -321 217 -427 12 -21 23 -42 23 -47 0 -5 3 -11 8 -13 4 -2 25 -30 46 -63
40 -60 124 -176 136 -185 4 -3 11 -12 16 -21 31 -56 301 -336 414 -430 36 -30
67 -56 70 -59 3 -3 25 -21 50 -40 25 -19 47 -38 48 -42 2 -5 10 -8 17 -8 7 0
15 -4 17 -9 4 -11 214 -151 227 -151 6 0 11 -4 11 -10 0 -5 4 -10 10 -10 5 0
38 -17 72 -38 152 -92 457 -224 673 -290 190 -59 418 -109 580 -127 33 -4 69
-9 80 -11 87 -17 594 -25 735 -11 113 11 182 19 203 23 12 2 42 7 67 10 44 6
53 8 115 20 17 4 39 8 50 9 11 2 20 4 20 5 0 1 11 3 24 6 132 24 427 117 571
179 47 20 90 37 95 39 21 4 273 135 338 174 37 23 69 42 72 42 12 0 298 206
337 243 7 6 36 30 63 52 147 116 422 421 542 600 26 39 51 72 55 73 4 2 8 7 8
11 0 4 31 59 68 122 147 248 257 515 333 812 16 65 32 134 35 153 2 20 6 40 9
44 3 4 7 25 10 46 2 22 7 56 11 76 3 20 7 54 9 75 2 21 7 61 11 88 10 70 10
535 0 620 -4 39 -10 86 -12 105 -29 249 -124 602 -221 820 -55 123 -120 255
-165 334 -58 102 -215 338 -251 376 -12 14 -29 34 -37 46 -50 72 -269 299
-379 394 -35 30 -69 60 -75 65 -6 6 -38 30 -71 55 -33 25 -62 48 -65 51 -21
25 -319 208 -382 235 -21 9 -38 20 -38 25 0 5 -6 9 -13 9 -7 0 -39 13 -72 30
-33 16 -65 30 -72 30 -6 0 -13 5 -15 11 -2 7 -17 -17 -33 -52z"/>
</g>
</svg>
